<svg xmlns="http://www.w3.org/2000/svg" viewBox="0 0 400 400"><defs><radialGradient id="body" cx="32%" cy="20%" r="85%"><stop stop-color="#d8f38b"/><stop offset=".6" stop-color="#d8f38b"/><stop offset="1" stop-color="#645180"/></radialGradient></defs><ellipse cx="200" cy="332" rx="99" ry="15" fill="#090510" opacity=".5"/><path d="m145 130-18-60 52 50m44-2 50-67-7 90" fill="#c2a3ee"/><circle cx="325" cy="98" r="19" fill="#bda0eb"/><circle cx="78" cy="123" r="11" fill="#e1efb1"/><path d="M196 114C127 106 91 155 89 230c-3 73 44 99 112 99s113-26 112-98c-1-68-42-115-117-117Z" fill="url(#body)"/><ellipse cx="136" cy="315" rx="32" ry="19" fill="#d8f38b"/><ellipse cx="266" cy="315" rx="32" ry="19" fill="#d8f38b"/><ellipse cx="147" cy="214" rx="25" ry="31" fill="#2b2140"/><ellipse cx="252" cy="214" rx="25" ry="31" fill="#2b2140"/><ellipse cx="155" cy="204" rx="8" ry="10" fill="#fff9f6"/><ellipse cx="259" cy="204" rx="8" ry="10" fill="#fff9f6"/><circle cx="139" cy="225" r="4" fill="#a998c5"/><circle cx="242" cy="225" r="4" fill="#a998c5"/><path d="M181 255q19 17 38 0" stroke="#453257" stroke-width="6" stroke-linecap="round" fill="none"/><ellipse cx="120" cy="253" rx="17" ry="8" fill="#fca9c6" opacity=".65"/><ellipse cx="280" cy="253" rx="17" ry="8" fill="#fca9c6" opacity=".65"/><path d="m190 153 10-17 10 17-10 9Z" fill="#c3a3ef"/><ellipse cx="139" cy="158" rx="12" ry="19" fill="#fff" opacity=".15" transform="rotate(40 139 158)"/></svg>